HIERARCHY
ROOT Hips
{
	OFFSET -3.958830 18.904000 13.208200
	CHANNELS 6 Xposition Yposition Zposition Zrotation Yrotation Xrotation 
	JOINT LHipJoint
	{
		OFFSET 0.000000 0.000000 0.000000
		CHANNELS 3 Zrotation Yrotation Xrotation
		JOINT LeftUpLeg
		{
			OFFSET 1.800000 -1.400000 0.085000
			CHANNELS 3 Zrotation Yrotation Xrotation
			JOINT LeftLeg
			{
				OFFSET 2.215000 -6.000000 0.000000
				CHANNELS 3 Zrotation Yrotation Xrotation
				JOINT LeftFoot
				{
					OFFSET 2.500000 -6.900000 0.000000
					CHANNELS 3 Zrotation Yrotation Xrotation
					JOINT LeftToeBase
					{
						OFFSET 0.200000 -0.500000 1.950000
						CHANNELS 3 Zrotation Yrotation Xrotation
						End Site
						{
							OFFSET 0.000000 0.000000 0.000000
						}
					}
				}
			}
		}
	}
	JOINT RHipJoint
	{
		OFFSET 0.000000 0.000000 0.000000
		CHANNELS 3 Zrotation Yrotation Xrotation
		JOINT RightUpLeg
		{
			OFFSET -1.800000 -1.400000 0.085000
			CHANNELS 3 Zrotation Yrotation Xrotation
			JOINT RightLeg
			{
				OFFSET -2.215000 -6.000000 0.000000
				CHANNELS 3 Zrotation Yrotation Xrotation
				JOINT RightFoot
				{
					OFFSET -2.500000 -6.900000 0.000000
					CHANNELS 3 Zrotation Yrotation Xrotation
					JOINT RightToeBase
					{
						OFFSET -0.200000 -0.500000 1.950000
						CHANNELS 3 Zrotation Yrotation Xrotation
						End Site
						{
							OFFSET 0.000000 0.000000 0.000000
						}
					}
				}
			}
		}
	}
	JOINT LowerBack
	{
		OFFSET 0.000000 0.000000 0.000000
		CHANNELS 3 Zrotation Yrotation Xrotation
		JOINT Spine
		{
			OFFSET -0.087000 1.940000 -0.288900
			CHANNELS 3 Zrotation Yrotation Xrotation
			JOINT Spine1
			{
				OFFSET 0.000000 1.950000 0.060000
				CHANNELS 3 Zrotation Yrotation Xrotation
				JOINT Neck
				{
					OFFSET 0.000000 0.000000 0.000000
					CHANNELS 3 Zrotation Yrotation Xrotation
					JOINT Neck1
					{
						OFFSET 0.000000 1.600000 0.340000
						CHANNELS 3 Zrotation Yrotation Xrotation
						JOINT Head
						{
							OFFSET 0.000000 1.667000 -0.240000
							CHANNELS 3 Zrotation Yrotation Xrotation
							End Site
							{
								OFFSET 0.000000 0.000000 0.000000
							}
						}
					}
				}
				JOINT LeftShoulder
				{
					OFFSET 0.000000 0.000000 0.000000
					CHANNELS 3 Zrotation Yrotation Xrotation
					JOINT LeftArm
					{
						OFFSET 2.700000 1.550000 -0.730000
						CHANNELS 3 Zrotation Yrotation Xrotation
						JOINT LeftForeArm
						{
							OFFSET 5.450000 0.000000 0.000000
							CHANNELS 3 Zrotation Yrotation Xrotation
							JOINT LeftHand
							{
								OFFSET 3.450000 0.000000 0.000000
								CHANNELS 3 Zrotation Yrotation Xrotation
								JOINT LeftHandIndex1
								{
									OFFSET 0.750000 0.000000 0.000000
									CHANNELS 3 Zrotation Yrotation Xrotation
									End Site
									{
										OFFSET 0.000000 0.000000 0.000000
									}
								}
							}
						}
					}
				}
				JOINT RightShoulder
				{
					OFFSET 0.000000 0.000000 0.000000
					CHANNELS 3 Zrotation Yrotation Xrotation
					JOINT RightArm
					{
						OFFSET -2.700000 1.550000 -0.730000
						CHANNELS 3 Zrotation Yrotation Xrotation
						JOINT RightForeArm
						{
							OFFSET -5.450000 0.000000 0.000000
							CHANNELS 3 Zrotation Yrotation Xrotation
							JOINT RightHand
							{
								OFFSET -3.450000 0.000000 0.000000
								CHANNELS 3 Zrotation Yrotation Xrotation
								JOINT RightHandIndex1
								{
									OFFSET -0.750000 0.000000 0.000000
									CHANNELS 3 Zrotation Yrotation Xrotation
									End Site
									{
										OFFSET 0.000000 0.000000 0.000000
									}
								}
							}
						}
					}
				}
			}
		}
	}
}
MOTION
Frames: 6
Frame Time: 0.016667
-0.291690 17.669080 -1.121220 -0.073436 -7.679333 -1.542463 -15.114113 14.108562 2.810001 2.201092 0.323223 -5.272074 -5.052452 8.109270 23.950873 0.197372 5.414375 2.762461 -0.045390 -0.107180 -0.094780 18.160165 -11.408988 2.270500 -10.850722 -0.908852 -5.496433 2.376247 -5.064483 15.190773 -0.103130 -3.904089 3.073086 0.006920 0.314400 0.108050 -3.346325 -2.507618 -7.072205 5.074701 -0.633848 5.512535 -4.366459 0.390362 12.698445 0.964331 -2.949640 -15.734130 -7.292120 6.267816 30.205097 2.133340 4.188740 -1.596700 27.838583 -8.650071 2.944359 42.404539 2.807670 0.743309 17.610931 -8.129453 -0.064267 -4.228104 3.268551 0.110580 0.192580 -0.094150 0.086000 -29.379830 13.171885 7.178250 -34.782666 -3.112805 -0.038612 -19.515927 10.265041 -0.417628 2.909754 -1.800348 -0.167410 0.133310 0.096600 -0.002640 
-0.371020 17.688250 -1.117750 -0.251050 -7.971074 -1.508544 -15.123463 14.042730 2.896662 0.798308 0.378698 -4.494312 -5.424107 8.113959 23.470199 0.222156 5.388100 2.777212 -0.044350 -0.113400 -0.079410 18.167597 -11.339732 2.319264 -10.403551 -0.961465 -4.870867 2.710176 -5.067023 14.353351 -0.121264 -3.892980 3.080391 -0.004210 0.292670 0.102320 -3.345036 -2.562507 -7.151398 5.469663 -0.692819 5.617293 -4.702203 0.402777 12.565396 1.175236 -3.099731 -16.097107 -7.611667 6.149708 30.352507 2.039410 4.193480 -1.865850 28.952762 -8.147120 2.813091 43.317970 3.452521 1.018465 15.094553 -5.866002 -0.026036 -4.116674 3.187075 0.126940 0.173630 -0.081640 0.078670 -30.882362 13.074758 7.023807 -36.064740 -4.333486 0.197460 -17.420187 6.867828 -0.141422 2.940037 -1.647515 -0.165840 0.127120 0.090300 -0.010850 
-0.444450 17.696050 -1.114350 -0.230336 -7.933822 -1.473975 -15.109476 13.933026 2.978535 -0.718863 0.496731 -3.557319 -5.551782 7.894597 22.334545 0.226831 5.257198 2.831088 -0.040290 -0.109060 -0.075950 18.199175 -11.309531 2.367806 -10.164765 -1.014516 -4.294601 3.021817 -5.074206 13.535170 -0.139504 -3.908423 3.078079 -0.005860 0.281110 0.097120 -3.419102 -2.502479 -7.215160 5.907572 -0.613935 5.576768 -5.494268 0.634346 12.559153 1.200290 -3.004984 -16.442703 -7.473003 5.810143 30.604040 2.358100 3.816510 -1.953390 30.421226 -7.490421 2.524311 44.246184 3.446932 1.297812 13.094167 -4.710260 -0.033501 -3.986002 3.162535 0.132030 0.161230 -0.074930 0.079060 -32.441273 12.579331 6.822647 -36.567293 -5.642718 0.499916 -15.601364 4.551298 -0.030327 2.956225 -1.520967 -0.162120 0.123920 0.083610 -0.010040 
-0.507120 17.693540 -1.109780 -0.726948 -7.216182 -1.266696 -15.111531 13.903988 3.027879 -1.550665 0.566225 -2.972343 -5.058100 7.467841 21.147831 0.213548 5.060565 2.901449 -0.033670 -0.106890 -0.060910 18.204136 -11.263319 2.434278 -9.416956 -1.052063 -3.818801 3.738631 -5.226229 13.336555 -0.164490 -3.934499 3.068280 -0.014300 0.255860 0.094160 -3.438690 -2.543956 -7.297245 6.627883 -0.648393 5.645602 -5.381904 0.534055 12.415518 1.320103 -3.050993 -16.899121 -7.692979 5.384015 30.879287 2.227090 3.467200 -2.310940 32.003136 -6.735400 2.269688 44.404361 3.869380 1.701172 11.153017 -4.208699 -0.035111 -3.851093 3.164642 0.145480 0.139630 -0.058330 0.075400 -34.248371 11.996191 6.515918 -37.337938 -6.877487 0.772958 -13.907054 2.638907 0.011594 2.952072 -1.381752 -0.153740 0.115570 0.072990 -0.013280 
-0.560770 17.686450 -1.089570 -1.450548 -5.805483 -0.954262 -15.159437 13.878146 3.026463 -1.953054 0.688285 -2.337062 -3.998819 6.831047 19.510538 0.184676 4.816895 2.997349 -0.047590 -0.119420 -0.081640 18.176402 -11.180769 2.514736 -8.454154 -1.111968 -3.054508 4.588511 -5.357588 12.719585 -0.175057 -3.996985 3.059413 -0.020620 0.272470 0.090670 -3.360999 -2.549635 -7.364458 6.838493 -0.361473 5.150974 -3.806888 0.467919 12.375039 1.257245 -2.837629 -17.036197 -7.402526 5.197923 31.125455 2.424510 3.040070 -1.641210 33.358827 -6.445805 2.119774 44.235213 4.465933 2.202660 9.649695 -4.308885 -0.009282 -3.778147 3.210866 0.131000 0.148140 -0.072450 0.080000 -35.362609 11.250813 5.998528 -38.722820 -7.789424 1.185914 -13.078253 2.067032 -0.003177 2.906035 -1.346923 -0.155410 0.117350 0.078720 -0.002900 
-0.614600 17.670750 -1.077840 -2.204044 -4.509092 -0.701398 -15.191927 13.870768 3.036164 -1.918574 0.762674 -1.749684 -3.364440 6.342702 17.723449 0.146741 4.607910 3.065355 -0.033730 -0.109350 -0.059200 18.151730 -11.117436 2.600553 -7.417534 -1.165199 -2.502612 5.376370 -5.497706 12.350391 -0.207098 -4.029403 3.043912 -0.018500 0.244930 0.094680 -3.303687 -2.576837 -7.450387 7.417009 -0.195115 5.144170 -2.906209 0.425713 11.914423 1.493488 -2.867511 -17.079776 -7.540831 5.119691 31.581229 1.893520 3.228580 -2.192910 34.144648 -5.978822 1.958916 44.650323 4.657492 2.509666 8.736121 -3.658568 -0.074636 -3.689440 3.189086 0.148600 0.133080 -0.053950 0.073220 -36.483139 10.599455 5.354254 -40.051950 -8.742176 1.679511 -11.344953 1.343518 -0.044437 2.795377 -1.285253 -0.149900 0.107720 0.071240 -0.014140 
